# Blender v2.78 (sub 0) OBJ File: '20.blend'
# www.blender.org
mtllib Mountain_01.mtl
o Mountain_Cube
v -4.122015 0.022694 1.887309
v -2.089647 4.730454 1.204672
v -2.433230 0.022694 -1.182353
v -1.877770 6.322002 -0.685373
v 3.482164 0.022694 1.676922
v 1.836242 4.157259 1.300163
v 3.626063 0.022694 -0.859238
v 1.720232 4.811735 -0.786632
v -5.196367 0.022694 0.826067
v -3.216594 1.703537 1.881895
v -1.485152 7.134273 0.074795
v -2.353216 3.081441 -1.081526
v 0.133269 0.022694 -1.873485
v -0.209050 7.007653 -0.658930
v 3.846802 2.592245 -0.834959
v 5.664337 0.022694 0.184829
v 1.652309 5.504984 0.150388
v 2.599465 2.516613 1.442234
v -0.193985 0.022694 2.864034
v -0.156626 5.202075 1.170054
v -0.220867 8.412428 0.006927
v -0.248351 2.584306 1.868089
v 4.012724 2.850991 0.181763
v 0.088439 3.731822 -1.213137
v -3.285906 2.697809 0.490814
v -4.560757 0.022694 1.493952
v -2.968400 2.763162 1.777986
v -1.485152 7.134273 -0.219811
v -2.596180 1.843753 -1.234241
v -1.258486 0.022694 -1.896942
v 0.651152 6.321896 -0.687125
v 4.012043 1.211449 -0.876854
v 5.664337 0.022694 -0.331341
v 1.722363 4.808976 0.677668
v 2.769712 1.796919 1.501071
v 1.197940 0.022694 2.291462
v -1.069641 5.204613 1.152701
v -4.757625 0.022694 -0.178823
v -3.441038 0.881366 1.966107
v -1.877690 6.322097 0.538778
v -1.984472 4.923225 -0.801946
v 2.077255 0.022694 -1.047562
v -1.017658 7.007653 -0.658930
v 3.021667 3.529880 -0.820314
v 4.636308 0.022694 0.922685
v 1.652313 5.504979 -0.300392
v 2.342992 3.192596 1.414736
v -1.721207 0.022694 2.405603
v 0.794624 4.787039 1.248921
v -0.209050 7.007653 0.513915
v -0.220867 8.412428 -0.151942
v 0.599558 7.007653 0.122967
v -0.819088 7.612012 0.118324
v -1.812900 2.116855 1.924479
v 1.256228 2.629380 1.700014
v -0.301479 1.710226 2.008435
v -0.169275 3.817362 1.606492
v 3.847670 2.591218 0.710092
v 4.012722 2.850994 -0.324649
v 4.974780 0.693201 0.180953
v 3.108782 4.923342 0.180236
v 1.919451 3.289608 -0.919334
v -1.251996 3.589035 -1.206495
v 0.228693 2.312788 -1.430976
v -0.176504 5.583071 -0.724942
v -2.961179 2.987506 -0.208217
v -3.313665 2.227677 1.130447
v -3.739232 1.067311 0.581251
v -2.123308 5.582310 0.138940
v -2.159395 4.763446 0.716886
v -3.750394 0.878264 1.258277
v -3.338326 1.397689 -0.200569
v -1.050145 5.583370 -0.721047
v -1.385305 2.132103 -1.419935
v 2.361751 2.124323 -1.009864
v 3.108776 4.923348 -0.320895
v 4.974780 0.693202 -0.344014
v 4.354347 1.211164 0.791156
v 0.983610 3.543982 1.584111
v 1.372948 1.846950 1.795331
v -1.998354 1.209207 2.063512
v -0.819088 7.612012 -0.263340
v 0.599558 7.007653 -0.267982
v 0.650983 6.322097 0.538778
v -1.017658 7.007653 0.513915
v -1.502371 3.497280 1.635952
v 3.024316 3.526744 0.729530
v 0.758572 4.920262 -0.845885
v -2.120761 5.584522 -0.290320
v -1.999916 6.168500 -0.281154
v 0.772694 6.760522 0.127476
v -2.039181 5.985989 0.134416
v -1.036897 6.340339 0.750333
v -1.442120 6.669302 0.526186
v -1.038743 6.083237 -0.699247
v -4.571490 0.419047 0.579867
v 0.173175 0.980400 -1.688430
v -1.293506 0.605190 -1.765221
v -4.004212 0.752589 -0.190366
v -4.127851 0.413154 1.252096
v -1.855286 0.596710 2.240105
vn -0.9336 0.1284 -0.3346
vn 0.0735 0.1096 -0.9913
vn 0.5772 0.5118 0.6363
vn -0.0710 0.2990 0.9516
vn 0.1798 0.3814 0.9067
vn -0.0869 0.1477 0.9852
vn 0.1097 0.1441 0.9835
vn 0.0677 0.2853 0.9561
vn 0.4734 0.2096 0.8556
vn 0.9133 0.4072 -0.0000
vn 0.3709 0.9287 0.0000
vn 0.0936 0.0740 -0.9929
vn -0.0221 0.1482 -0.9887
vn -0.0033 0.0455 -0.9990
vn -0.8251 0.2079 -0.5253
vn -0.9490 0.2921 0.1182
vn -0.9552 0.1985 0.2195
vn -0.8261 0.4080 0.3886
vn -0.9093 0.3793 0.1711
vn -0.9280 0.3386 0.1556
vn -0.7450 0.5738 0.3403
vn -0.8842 0.3039 0.3548
vn -0.9090 0.2237 -0.3517
vn -0.0204 0.2451 -0.9693
vn -0.1437 0.2141 -0.9662
vn 0.0207 0.0714 -0.9972
vn -0.1846 0.1576 -0.9701
vn 0.0839 0.0065 -0.9965
vn 0.1998 0.1604 -0.9666
vn 0.9166 0.3998 -0.0000
vn 0.5993 0.3486 -0.7207
vn 0.2602 0.4104 -0.8740
vn 0.6885 0.2312 -0.6874
vn 0.8071 0.3459 0.4784
vn 0.0857 0.1800 0.9799
vn 0.1790 0.1473 0.9728
vn 0.1459 0.2414 0.9594
vn 0.2035 0.1383 0.9693
vn -0.1454 0.3919 0.9085
vn -0.0127 0.1566 0.9876
vn 0.8190 0.5738 0.0000
vn 0.6231 0.4663 -0.6280
vn 0.4443 0.5038 0.7408
vn 0.6284 0.4787 0.6131
vn -0.0322 0.1659 0.9856
vn -0.0281 0.2099 0.9773
vn -0.0358 0.2896 0.9565
vn 0.5075 0.3440 0.7900
vn 0.6273 0.3561 0.6926
vn 0.2712 0.4389 0.8567
vn 0.0700 0.0882 -0.9936
vn 0.1465 0.2157 -0.9654
vn -0.0242 0.0781 -0.9967
vn -0.8090 0.2442 -0.5348
vn -0.9276 0.3243 -0.1852
vn -0.9791 0.2032 -0.0040
vn -0.0109 0.3385 0.9409
vn -0.1830 0.3684 0.9115
vn 0.0758 0.4547 0.8874
vn 0.4757 0.2739 0.8359
vn 0.2090 0.1792 0.9614
vn -0.0163 0.2060 -0.9784
vn 0.2688 0.0560 -0.9616
vn -0.6467 0.1129 -0.7543
vn -0.3294 0.0575 -0.9424
vn -0.6454 0.6991 0.3079
vn -0.6515 0.7540 -0.0838
vn -0.1482 0.1194 0.9817
vn -0.2370 0.3305 0.9136
vn 0.8635 0.5043 0.0000
vn -0.5828 0.8126 0.0000
vn -0.1664 0.4169 -0.8936
vn -0.4598 0.5935 -0.6606
vn 0.4025 0.3810 -0.8324
vn 0.4027 0.3798 0.8328
vn 0.0000 0.3339 0.9426
vn -0.1664 0.4169 0.8936
vn -0.4613 0.5911 0.6616
vn -0.8010 0.5987 0.0000
vn -0.9007 0.4345 -0.0014
vn 0.0000 0.0436 -0.9991
vn -0.8905 0.4501 0.0664
vn -0.8770 0.4729 -0.0854
vn -0.0041 0.0437 -0.9990
vn 0.6144 0.4424 0.6533
vn -0.4571 0.5974 0.6589
vn -0.4437 0.8203 0.3609
vn -0.3687 0.3671 -0.8540
vn -0.6414 0.7333 -0.2257
vn 0.0079 0.2014 -0.9795
vn -0.5130 0.1599 -0.8434
vn 0.3860 0.1595 -0.9086
vn 0.6971 0.7169 0.0000
vn 0.3391 0.0401 -0.9399
vn 0.5340 0.2171 0.8171
vn 0.6534 0.3888 0.6496
vn 0.3719 0.2102 0.9041
vn 0.2528 0.2313 0.9395
vn -0.2055 0.2265 0.9521
vn -0.4271 0.7686 0.4764
vn 0.1205 -0.0538 -0.9912
vn -0.2814 0.2046 0.9375
vn 0.0000 -1.0000 0.0000
usemtl 455A64
s off
f 89//1 90//1 4//1 41//1
f 88//2 31//2 8//2 44//2
f 87//3 34//3 6//3 47//3
f 86//4 37//4 2//4 27//4
f 84//5 50//5 20//5 49//5
f 81//6 54//6 10//6 39//6
f 80//7 55//7 22//7 56//7
f 79//8 49//8 20//8 57//8
f 78//9 58//9 18//9 35//9
f 77//10 59//10 23//10 60//10
f 76//11 46//11 17//11 61//11
f 75//12 62//12 15//12 32//12
f 74//13 63//13 24//13 64//13
f 73//14 95//14 14//14 65//14
f 72//15 66//15 12//15 29//15
f 71//16 67//16 25//16 68//16
f 70//17 40//17 92//17 69//17
f 67//18 70//18 69//18 25//18
f 10//19 27//19 70//19 67//19
f 27//20 2//20 40//20 70//20
f 1//21 39//21 71//21 100//21
f 39//22 10//22 67//22 71//22
f 68//23 25//23 66//23 72//23
f 63//24 73//24 65//24 24//24
f 12//25 41//25 73//25 63//25
f 41//26 4//26 95//26 73//26
f 29//27 12//27 63//27 74//27
f 42//28 75//28 32//28
f 64//29 24//29 62//29 75//29
f 59//30 76//30 61//30 23//30
f 15//31 44//31 76//31 59//31
f 44//32 8//32 46//32 76//32
f 32//33 15//33 59//33 77//33
f 60//34 23//34 58//34 78//34
f 55//35 79//35 57//35 22//35
f 18//36 47//36 79//36 55//36
f 47//37 6//37 49//37 79//37
f 35//38 18//38 55//38 80//38
f 19//39 56//39 81//39 101//39
f 56//40 22//40 54//40 81//40
f 46//41 83//41 91//41 17//41
f 8//42 31//42 83//42 46//42
f 34//43 84//43 49//43 6//43
f 17//44 91//44 84//44 34//44
f 54//45 86//45 27//45 10//45
f 22//46 57//46 86//46 54//46
f 57//47 20//47 37//47 86//47
f 58//48 87//48 47//48 18//48
f 23//49 61//49 87//49 58//49
f 61//50 17//50 34//50 87//50
f 62//51 88//51 44//51 15//51
f 24//52 65//52 88//52 62//52
f 65//53 14//53 31//53 88//53
f 66//54 89//54 41//54 12//54
f 25//55 69//55 89//55 66//55
f 69//56 92//56 90//56 89//56
f 93//57 37//57 20//57 50//57
f 93//58 94//58 40//58 2//58 37//58
f 19//59 80//59 56//59
f 5//60 78//60 35//60
f 80//61 5//61 35//61
f 97//62 98//62 74//62 64//62
f 42//63 97//63 64//63 75//63
f 3//64 99//64 72//64 29//64
f 98//65 3//65 29//65 74//65
f 96//66 100//66 71//66 68//66
f 99//67 96//67 68//67 72//67
f 1//68 101//68 81//68 39//68
usemtl FFFFFF
f 85//69 94//69 93//69
f 83//70 51//70 21//70 52//70
f 82//71 28//71 11//71 53//71
f 14//72 43//72 82//72 51//72
f 43//73 4//73 28//73 82//73
f 31//74 14//74 51//74 83//74
f 52//75 21//75 50//75 84//75
f 50//76 85//76 93//76
f 21//77 53//77 85//77 50//77
f 53//78 11//78 94//78 85//78
f 21//79 51//79 82//79 53//79
f 92//80 40//80 11//80
f 14//81 95//81 43//81
f 90//82 92//82 11//82 28//82
f 4//83 90//83 28//83
f 91//41 83//41 52//41
f 95//84 4//84 43//84
f 84//85 91//85 52//85
f 94//86 11//86 40//86
usemtl 8BC34A
f 26//87 100//87 96//87 9//87
f 38//88 99//88 3//88
f 9//89 96//89 99//89 38//89
f 30//90 98//90 97//90 13//90
f 3//91 98//91 30//91
f 13//92 97//92 42//92
f 33//93 77//93 60//93 16//93
f 7//94 32//94 77//94 33//94
f 45//95 78//95 5//95
f 16//96 60//96 78//96 45//96
f 36//97 80//97 19//97
f 5//98 80//98 36//98
f 48//99 101//99 1//99
f 100//100 26//100 1//100
f 32//101 7//101 42//101
f 101//102 48//102 19//102
f 36//103 13//103 42//103 5//103
f 7//103 45//103 5//103 42//103
f 33//103 16//103 45//103 7//103
f 13//103 36//103 19//103 30//103
f 30//103 19//103 48//103 3//103
f 3//103 48//103 1//103 38//103
f 26//103 9//103 38//103
f 38//103 1//103 26//103
